# Blender 4.5.3 LTS
# www.blender.org
mtllib Naveobj.mtl
o Cubo
o Cube.001
v -4.000000 1.416486 -4.000000
v -4.000000 -0.583514 -4.000000
v -4.000000 1.416486 4.000000
v -4.000000 -0.583514 4.000000
v -6.000000 1.416486 -4.000000
v -6.000000 -0.583514 -4.000000
v -6.000000 1.416486 4.000000
v -6.000000 -0.583514 4.000000
vn -0.0000 1.0000 -0.0000
vn -0.0000 -0.0000 1.0000
vn -1.0000 -0.0000 -0.0000
vn -0.0000 -1.0000 -0.0000
vn 1.0000 -0.0000 -0.0000
vn -0.0000 -0.0000 -1.0000
vt 0.625000 0.500000
vt 0.875000 0.500000
vt 0.875000 0.750000
vt 0.625000 0.750000
vt 0.375000 0.750000
vt 0.625000 1.000000
vt 0.375000 1.000000
vt 0.375000 0.000000
vt 0.625000 0.000000
vt 0.625000 0.250000
vt 0.375000 0.250000
vt 0.125000 0.500000
vt 0.375000 0.500000
vt 0.125000 0.750000
s 0
usemtl Material.001
f 1/1/1 5/2/1 7/3/1 3/4/1
f 4/5/2 3/4/2 7/6/2 8/7/2
f 8/8/3 7/9/3 5/10/3 6/11/3
f 6/12/4 2/13/4 4/5/4 8/14/4
f 2/13/5 1/1/5 3/4/5 4/5/5
f 6/11/6 5/10/6 1/1/6 2/13/6
o Cube.002
v -6.000000 3.408595 -4.000000
v -6.000000 1.408595 -4.000000
v -6.000000 3.408595 4.000000
v -6.000000 1.408595 4.000000
v -8.000000 3.408595 -4.000000
v -8.000000 1.408595 -4.000000
v -8.000000 3.408595 4.000000
v -8.000000 1.408595 4.000000
vn -0.0000 1.0000 -0.0000
vn -0.0000 -0.0000 1.0000
vn -1.0000 -0.0000 -0.0000
vn -0.0000 -1.0000 -0.0000
vn 1.0000 -0.0000 -0.0000
vn -0.0000 -0.0000 -1.0000
vt 0.625000 0.500000
vt 0.875000 0.500000
vt 0.875000 0.750000
vt 0.625000 0.750000
vt 0.375000 0.750000
vt 0.625000 1.000000
vt 0.375000 1.000000
vt 0.375000 0.000000
vt 0.625000 0.000000
vt 0.625000 0.250000
vt 0.375000 0.250000
vt 0.125000 0.500000
vt 0.375000 0.500000
vt 0.125000 0.750000
s 0
usemtl Material.002
f 9/15/7 13/16/7 15/17/7 11/18/7
f 12/19/8 11/18/8 15/20/8 16/21/8
f 16/22/9 15/23/9 13/24/9 14/25/9
f 14/26/10 10/27/10 12/19/10 16/28/10
f 10/27/11 9/15/11 11/18/11 12/19/11
f 14/25/12 13/24/12 9/15/12 10/27/12
o Cubo.001
v -0.747272 2.862968 -8.463005
v -0.747272 1.881776 -8.463005
v -0.747272 2.862968 -9.418276
v -0.747272 1.881776 -9.418276
v -0.969446 2.862968 -8.463005
v -0.969446 1.881776 -8.463005
v -0.969446 2.862968 -9.418276
v -0.969446 1.881776 -9.418276
v -0.969446 1.881776 -9.418276
v -0.969446 2.862968 -9.418276
v -0.969446 2.862968 -8.463005
v -0.969446 1.881776 -8.463005
v -0.969446 1.881776 -9.418276
v -0.969446 2.862968 -9.418276
v -0.969446 2.862968 -8.463005
v -0.969446 1.881776 -8.463005
v -0.969446 1.881776 -9.418276
v -0.969446 2.862968 -9.418276
v -0.969446 2.862968 -8.463005
v -0.969446 1.881776 -8.463005
v -0.969446 1.881776 -9.418276
v -0.969446 2.862968 -9.418276
v -0.969446 2.862968 -8.463005
v -0.969446 1.881776 -8.463005
v -0.969446 1.881776 -9.418276
v -0.969446 2.862968 -9.418276
v -0.969446 2.862968 -8.463005
v -0.969446 1.881776 -8.463005
v -2.220543 2.862968 -8.463005
v -2.220543 1.881777 -8.463005
v -2.220543 2.862968 -9.418276
v -2.220543 1.881777 -9.418276
v -3.728418 2.862968 -8.463005
v -3.728418 1.881777 -8.463005
v -3.728418 2.862968 -9.418276
v -3.728418 1.881777 -9.418276
v -4.925494 2.862968 -8.498209
v -4.925494 1.881777 -8.498209
v -5.285435 2.862968 -9.383072
v -5.285435 1.881777 -9.383072
v -5.898656 2.862968 -8.166475
v -5.898656 1.881777 -8.166475
v -6.641191 2.862968 -8.767459
v -6.641191 1.881777 -8.767459
v -6.445108 2.862968 -7.553093
v -6.445108 1.881777 -7.553093
v -7.364682 2.862968 -7.811787
v -7.364682 1.881777 -7.811787
v -6.722456 2.862968 -6.663756
v -6.722456 1.881777 -6.663756
v -7.676109 2.862968 -6.608215
v -7.676109 1.881777 -6.608215
v -6.565608 2.862968 -3.970612
v -6.565608 1.881777 -3.970612
v -7.519260 2.862968 -3.915071
v -7.519260 1.881777 -3.915071
vn 1.0000 -0.0000 -0.0000
vn -0.0000 -0.0000 -1.0000
vn -0.0000 -1.0000 -0.0000
vn -0.0000 -0.0000 1.0000
vn -0.0000 1.0000 -0.0000
vn -0.0294 -0.0000 0.9996
vn -0.0226 -0.0000 -0.9997
vn 0.7467 -0.0000 0.6652
vn -0.4134 -0.0000 -0.9105
vn 0.3227 -0.0000 0.9465
vn -0.7973 -0.0000 -0.6036
vn -0.9681 -0.0000 -0.2505
vn 0.9547 -0.0000 0.2977
vn 0.0581 -0.0000 0.9983
vn -0.9983 -0.0000 0.0581
vn 0.9983 -0.0000 -0.0581
vt 0.375000 0.000000
vt 0.625000 0.000000
vt 0.625000 0.250000
vt 0.375000 0.250000
vt 0.625000 0.500000
vt 0.375000 0.500000
vt 0.625000 0.750000
vt 0.375000 0.750000
vt 0.625000 1.000000
vt 0.375000 1.000000
vt 0.125000 0.500000
vt 0.125000 0.750000
vt 0.875000 0.500000
vt 0.875000 0.750000
vt 0.000000 0.000000
s 0
f 17/29/13 18/30/13 20/31/13 19/32/13
f 19/32/14 20/31/14 25/33/14 26/34/14
f 24/33/15 22/35/15 46/35/15 48/33/15
f 27/36/16 28/35/16 18/37/16 17/38/16
f 19/39/17 26/34/17 27/36/17 17/40/17
f 25/33/15 20/41/15 18/42/15 28/35/15
f 29/43/15 30/43/15 26/43/15 25/43/15
f 30/34/15 31/36/15 27/36/15 26/34/15
f 32/35/15 29/33/15 25/33/15 28/35/15
f 31/43/15 32/43/15 28/43/15 27/43/15
f 33/43/15 34/43/15 30/43/15 29/43/15
f 34/34/15 35/36/15 31/36/15 30/34/15
f 36/35/15 33/33/15 29/33/15 32/35/15
f 35/43/15 36/43/15 32/43/15 31/43/15
f 37/43/15 38/43/15 34/43/15 33/43/15
f 38/34/15 39/36/15 35/36/15 34/34/15
f 40/35/15 37/33/15 33/33/15 36/35/15
f 39/43/15 40/43/15 36/43/15 35/43/15
f 41/43/15 42/43/15 38/43/15 37/43/15
f 42/34/15 43/36/15 39/36/15 38/34/15
f 44/35/15 41/33/15 37/33/15 40/35/15
f 43/43/15 44/43/15 40/43/15 39/43/15
f 24/33/15 23/34/15 42/34/15 41/33/15
f 23/34/15 21/36/15 43/36/15 42/34/15
f 22/35/15 24/33/15 41/33/15 44/35/15
f 21/36/15 22/35/15 44/35/15 43/36/15
f 47/34/14 48/33/14 52/33/14 51/34/14
f 23/34/14 24/33/14 48/33/14 47/34/14
f 22/35/16 21/36/16 45/36/16 46/35/16
f 21/36/17 23/34/17 47/34/17 45/36/17
f 50/35/18 49/36/18 53/36/18 54/35/18
f 46/35/16 45/36/16 49/36/16 50/35/16
f 45/36/17 47/34/17 51/34/17 49/36/17
f 48/33/15 46/35/15 50/35/15 52/33/15
f 56/33/15 54/35/15 58/35/15 60/33/15
f 49/36/17 51/34/17 55/34/17 53/36/17
f 52/33/15 50/35/15 54/35/15 56/33/15
f 51/34/19 52/33/19 56/33/19 55/34/19
f 58/35/20 57/36/20 61/36/20 62/35/20
f 55/34/21 56/33/21 60/33/21 59/34/21
f 54/35/22 53/36/22 57/36/22 58/35/22
f 53/36/17 55/34/17 59/34/17 57/36/17
f 61/36/17 63/34/17 67/34/17 65/36/17
f 57/36/17 59/34/17 63/34/17 61/36/17
f 60/33/15 58/35/15 62/35/15 64/33/15
f 59/34/23 60/33/23 64/33/23 63/34/23
f 68/33/15 66/35/15 70/35/15 72/33/15
f 64/33/15 62/35/15 66/35/15 68/33/15
f 63/34/24 64/33/24 68/33/24 67/34/24
f 62/35/25 61/36/25 65/36/25 66/35/25
f 71/34/26 72/33/26 70/35/26 69/36/26
f 67/34/27 68/33/27 72/33/27 71/34/27
f 66/35/28 65/36/28 69/36/28 70/35/28
f 65/36/17 67/34/17 71/34/17 69/36/17
o Cubo.002
v 1.116928 1.881776 -8.463005
v 1.116928 2.862968 -8.463005
v 1.116928 1.881776 -9.418276
v 1.116928 2.862968 -9.418276
v 1.339102 1.881776 -8.463005
v 1.339102 2.862968 -8.463005
v 1.339102 1.881776 -9.418276
v 1.339102 2.862968 -9.418276
v 1.339102 2.862968 -9.418276
v 1.339102 1.881776 -9.418276
v 1.339102 1.881776 -8.463005
v 1.339102 2.862968 -8.463005
v 1.339102 2.862968 -9.418276
v 1.339102 1.881776 -9.418276
v 1.339102 1.881776 -8.463005
v 1.339102 2.862968 -8.463005
v 1.339102 2.862968 -9.418276
v 1.339102 1.881776 -9.418276
v 1.339102 1.881776 -8.463005
v 1.339102 2.862968 -8.463005
v 1.339102 2.862968 -9.418276
v 1.339102 1.881776 -9.418276
v 1.339102 1.881776 -8.463005
v 1.339102 2.862968 -8.463005
v 1.339102 2.862968 -9.418276
v 1.339102 1.881776 -9.418276
v 1.339102 1.881776 -8.463005
v 1.339102 2.862968 -8.463005
v 2.590199 1.881776 -8.463005
v 2.590199 2.862968 -8.463005
v 2.590199 1.881776 -9.418276
v 2.590199 2.862968 -9.418276
v 4.098075 1.881776 -8.463005
v 4.098075 2.862968 -8.463005
v 4.098075 1.881776 -9.418276
v 4.098075 2.862968 -9.418276
v 5.295151 1.881776 -8.498209
v 5.295151 2.862968 -8.498209
v 5.655091 1.881776 -9.383072
v 5.655091 2.862968 -9.383072
v 6.268312 1.881776 -8.166475
v 6.268312 2.862968 -8.166475
v 7.010848 1.881776 -8.767459
v 7.010848 2.862968 -8.767459
v 6.814764 1.881776 -7.553093
v 6.814764 2.862968 -7.553093
v 7.734339 1.881776 -7.811787
v 7.734339 2.862968 -7.811787
v 7.092113 1.881776 -6.663756
v 7.092113 2.862968 -6.663756
v 8.045765 1.881776 -6.608215
v 8.045765 2.862968 -6.608215
v 6.935264 1.881776 -3.970612
v 6.935264 2.862968 -3.970612
v 7.888917 1.881776 -3.915071
v 7.888917 2.862968 -3.915071
vn -1.0000 -0.0000 -0.0000
vn -0.0000 -0.0000 -1.0000
vn -0.0000 1.0000 -0.0000
vn -0.0000 -0.0000 1.0000
vn -0.0000 -1.0000 -0.0000
vn 0.0294 -0.0000 0.9996
vn 0.0226 -0.0000 -0.9997
vn -0.7467 -0.0000 0.6652
vn 0.4134 -0.0000 -0.9105
vn -0.3227 -0.0000 0.9465
vn 0.7973 -0.0000 -0.6036
vn 0.9681 -0.0000 -0.2505
vn -0.9547 -0.0000 0.2977
vn -0.0581 -0.0000 0.9983
vn 0.9983 -0.0000 0.0581
vn -0.9983 -0.0000 -0.0581
vt 0.375000 0.000000
vt 0.625000 0.000000
vt 0.625000 0.250000
vt 0.375000 0.250000
vt 0.625000 0.500000
vt 0.375000 0.500000
vt 0.625000 0.750000
vt 0.375000 0.750000
vt 0.625000 1.000000
vt 0.375000 1.000000
vt 0.125000 0.500000
vt 0.125000 0.750000
vt 0.875000 0.500000
vt 0.875000 0.750000
vt 0.000000 0.000000
s 0
f 73/44/29 74/45/29 76/46/29 75/47/29
f 75/47/30 76/46/30 81/48/30 82/49/30
f 80/48/31 78/50/31 102/50/31 104/48/31
f 83/51/32 84/50/32 74/52/32 73/53/32
f 75/54/33 82/49/33 83/51/33 73/55/33
f 81/48/31 76/56/31 74/57/31 84/50/31
f 85/58/31 86/58/31 82/58/31 81/58/31
f 86/49/31 87/51/31 83/51/31 82/49/31
f 88/50/31 85/48/31 81/48/31 84/50/31
f 87/58/31 88/58/31 84/58/31 83/58/31
f 89/58/31 90/58/31 86/58/31 85/58/31
f 90/49/31 91/51/31 87/51/31 86/49/31
f 92/50/31 89/48/31 85/48/31 88/50/31
f 91/58/31 92/58/31 88/58/31 87/58/31
f 93/58/31 94/58/31 90/58/31 89/58/31
f 94/49/31 95/51/31 91/51/31 90/49/31
f 96/50/31 93/48/31 89/48/31 92/50/31
f 95/58/31 96/58/31 92/58/31 91/58/31
f 97/58/31 98/58/31 94/58/31 93/58/31
f 98/49/31 99/51/31 95/51/31 94/49/31
f 100/50/31 97/48/31 93/48/31 96/50/31
f 99/58/31 100/58/31 96/58/31 95/58/31
f 80/48/31 79/49/31 98/49/31 97/48/31
f 79/49/31 77/51/31 99/51/31 98/49/31
f 78/50/31 80/48/31 97/48/31 100/50/31
f 77/51/31 78/50/31 100/50/31 99/51/31
f 103/49/30 104/48/30 108/48/30 107/49/30
f 79/49/30 80/48/30 104/48/30 103/49/30
f 78/50/32 77/51/32 101/51/32 102/50/32
f 77/51/33 79/49/33 103/49/33 101/51/33
f 106/50/34 105/51/34 109/51/34 110/50/34
f 102/50/32 101/51/32 105/51/32 106/50/32
f 101/51/33 103/49/33 107/49/33 105/51/33
f 104/48/31 102/50/31 106/50/31 108/48/31
f 112/48/31 110/50/31 114/50/31 116/48/31
f 105/51/33 107/49/33 111/49/33 109/51/33
f 108/48/31 106/50/31 110/50/31 112/48/31
f 107/49/35 108/48/35 112/48/35 111/49/35
f 114/50/36 113/51/36 117/51/36 118/50/36
f 111/49/37 112/48/37 116/48/37 115/49/37
f 110/50/38 109/51/38 113/51/38 114/50/38
f 109/51/33 111/49/33 115/49/33 113/51/33
f 117/51/33 119/49/33 123/49/33 121/51/33
f 113/51/33 115/49/33 119/49/33 117/51/33
f 116/48/31 114/50/31 118/50/31 120/48/31
f 115/49/39 116/48/39 120/48/39 119/49/39
f 124/48/31 122/50/31 126/50/31 128/48/31
f 120/48/31 118/50/31 122/50/31 124/48/31
f 119/49/40 120/48/40 124/48/40 123/49/40
f 118/50/41 117/51/41 121/51/41 122/50/41
f 127/49/42 128/48/42 126/50/42 125/51/42
f 123/49/43 124/48/43 128/48/43 127/49/43
f 122/50/44 121/51/44 125/51/44 126/50/44
f 121/51/33 123/49/33 127/49/33 125/51/33
o 
v 0.000000 0.000000 0.000000
o Cube.003
v 6.000000 1.416486 -4.000000
v 6.000000 -0.583514 -4.000000
v 6.000000 1.416486 4.000000
v 6.000000 -0.583514 4.000000
v 4.000000 1.416486 -4.000000
v 4.000000 -0.583514 -4.000000
v 4.000000 1.416486 4.000000
v 4.000000 -0.583514 4.000000
vn -0.0000 1.0000 -0.0000
vn -0.0000 -0.0000 1.0000
vn -1.0000 -0.0000 -0.0000
vn -0.0000 -1.0000 -0.0000
vn 1.0000 -0.0000 -0.0000
vn -0.0000 -0.0000 -1.0000
vt 0.625000 0.500000
vt 0.875000 0.500000
vt 0.875000 0.750000
vt 0.625000 0.750000
vt 0.375000 0.750000
vt 0.625000 1.000000
vt 0.375000 1.000000
vt 0.375000 0.000000
vt 0.625000 0.000000
vt 0.625000 0.250000
vt 0.375000 0.250000
vt 0.125000 0.500000
vt 0.375000 0.500000
vt 0.125000 0.750000
s 0
usemtl Material.003
f 130/59/45 134/60/45 136/61/45 132/62/45
f 133/63/46 132/62/46 136/64/46 137/65/46
f 137/66/47 136/67/47 134/68/47 135/69/47
f 135/70/48 131/71/48 133/63/48 137/72/48
f 131/71/49 130/59/49 132/62/49 133/63/49
f 135/69/50 134/68/50 130/59/50 131/71/50
o Cube.004
v 8.000000 3.408595 -4.000000
v 8.000000 1.408595 -4.000000
v 8.000000 3.408595 4.000000
v 8.000000 1.408595 4.000000
v 6.000000 3.408595 -4.000000
v 6.000000 1.408595 -4.000000
v 6.000000 3.408595 4.000000
v 6.000000 1.408595 4.000000
vn -0.0000 1.0000 -0.0000
vn -0.0000 -0.0000 1.0000
vn -1.0000 -0.0000 -0.0000
vn -0.0000 -1.0000 -0.0000
vn 1.0000 -0.0000 -0.0000
vn -0.0000 -0.0000 -1.0000
vt 0.625000 0.500000
vt 0.875000 0.500000
vt 0.875000 0.750000
vt 0.625000 0.750000
vt 0.375000 0.750000
vt 0.625000 1.000000
vt 0.375000 1.000000
vt 0.375000 0.000000
vt 0.625000 0.000000
vt 0.625000 0.250000
vt 0.375000 0.250000
vt 0.125000 0.500000
vt 0.375000 0.500000
vt 0.125000 0.750000
s 0
usemtl Material.004
f 138/73/51 142/74/51 144/75/51 140/76/51
f 141/77/52 140/76/52 144/78/52 145/79/52
f 145/80/53 144/81/53 142/82/53 143/83/53
f 143/84/54 139/85/54 141/77/54 145/86/54
f 139/85/55 138/73/55 140/76/55 141/77/55
f 143/83/56 142/82/56 138/73/56 139/85/56
